<svg aria-hidden="true" style="position: absolute; width: 0; height: 0; overflow: hidden;" version="1.1" xmlns="http://www.w3.org/2000/svg" xmlns:xlink="http://www.w3.org/1999/xlink">
<defs>
<symbol id="icon-3" viewBox="0 0 32 32">
<path fill="#7a3145" style="fill: var(--color1, #7a3145)" d="M28.923 16c0 7.137-5.786 12.923-12.923 12.923s-12.923-5.786-12.923-12.923c0-7.137 5.786-12.923 12.923-12.923s12.923 5.786 12.923 12.923z"></path>
<path fill="none" stroke="#7a3145" style="stroke: var(--color1, #7a3145)" stroke-linejoin="miter" stroke-linecap="butt" stroke-miterlimit="4" stroke-width="3.0769" d="M30.462 16c0 7.987-6.475 14.462-14.462 14.462s-14.462-6.475-14.462-14.462c0-7.987 6.475-14.462 14.462-14.462s14.462 6.475 14.462 14.462z"></path>
<path fill="#fbfbfb" style="fill: var(--color2, #fbfbfb)" d="M16.082 20.428c-0.629 0-1.188-0.106-1.677-0.319-0.489-0.216-0.875-0.517-1.16-0.901-0.28-0.385-0.427-0.829-0.439-1.334h1.635c0.012 0.244 0.090 0.457 0.234 0.637 0.148 0.176 0.345 0.314 0.589 0.415 0.244 0.096 0.517 0.144 0.817 0.144 0.32 0 0.603-0.056 0.847-0.168 0.248-0.116 0.443-0.272 0.583-0.469 0.14-0.2 0.21-0.431 0.21-0.691 0-0.272-0.072-0.513-0.216-0.721-0.14-0.208-0.345-0.371-0.613-0.487s-0.591-0.174-0.968-0.174h-0.799v-1.25h0.799c0.305 0 0.575-0.054 0.811-0.162s0.421-0.258 0.553-0.451c0.132-0.196 0.198-0.425 0.198-0.685 0-0.252-0.058-0.473-0.174-0.661-0.112-0.188-0.272-0.335-0.481-0.439s-0.453-0.156-0.733-0.156c-0.272 0-0.527 0.050-0.763 0.15-0.232 0.096-0.421 0.234-0.565 0.415-0.14 0.18-0.214 0.397-0.222 0.649h-1.556c0.008-0.501 0.15-0.941 0.427-1.322 0.28-0.381 0.655-0.677 1.124-0.889 0.469-0.216 0.994-0.325 1.575-0.325 0.593 0 1.11 0.112 1.55 0.337 0.445 0.22 0.787 0.519 1.028 0.895 0.244 0.377 0.367 0.791 0.367 1.244 0 0.505-0.148 0.928-0.445 1.268s-0.687 0.565-1.172 0.673v0.066c0.625 0.088 1.104 0.32 1.436 0.697 0.337 0.377 0.505 0.845 0.505 1.406 0 0.501-0.142 0.95-0.427 1.346-0.284 0.393-0.675 0.701-1.172 0.925s-1.066 0.337-1.707 0.337z"></path>
</symbol>
<symbol id="icon-1" viewBox="0 0 32 32">
<path fill="#7a3145" style="fill: var(--color1, #7a3145)" d="M28.923 16c0 7.137-5.786 12.923-12.923 12.923s-12.923-5.786-12.923-12.923c0-7.137 5.786-12.923 12.923-12.923s12.923 5.786 12.923 12.923z"></path>
<path fill="none" stroke="#7a3145" style="stroke: var(--color1, #7a3145)" stroke-linejoin="miter" stroke-linecap="butt" stroke-miterlimit="4" stroke-width="3.0769" d="M30.462 16c0 7.987-6.475 14.462-14.462 14.462s-14.462-6.475-14.462-14.462c0-7.987 6.475-14.462 14.462-14.462s14.462 6.475 14.462 14.462z"></path>
<path fill="#fbfbfb" style="fill: var(--color2, #fbfbfb)" d="M17.625 11.353v8.954h-1.611v-7.374h-0.054l-2.091 1.34v-1.49l2.224-1.43h1.532z"></path>
</symbol>
<symbol id="icon-2" viewBox="0 0 32 32">
<path fill="#7a3145" style="fill: var(--color1, #7a3145)" d="M28.923 16c0 7.137-5.786 12.923-12.923 12.923s-12.923-5.786-12.923-12.923c0-7.137 5.786-12.923 12.923-12.923s12.923 5.786 12.923 12.923z"></path>
<path fill="none" stroke="#7a3145" style="stroke: var(--color1, #7a3145)" stroke-linejoin="miter" stroke-linecap="butt" stroke-miterlimit="4" stroke-width="3.0769" d="M30.462 16c0 7.987-6.475 14.462-14.462 14.462s-14.462-6.475-14.462-14.462c0-7.987 6.475-14.462 14.462-14.462s14.462 6.475 14.462 14.462z"></path>
<path fill="#fbfbfb" style="fill: var(--color2, #fbfbfb)" d="M12.867 20.308v-1.166l3.113-3.053c0.293-0.3 0.537-0.567 0.733-0.799 0.2-0.232 0.351-0.457 0.451-0.673 0.1-0.22 0.15-0.455 0.15-0.703 0-0.28-0.064-0.523-0.192-0.727s-0.305-0.361-0.529-0.469c-0.22-0.108-0.473-0.162-0.757-0.162-0.296 0-0.555 0.060-0.775 0.18s-0.393 0.29-0.517 0.511c-0.12 0.22-0.18 0.483-0.18 0.787h-1.538c0-0.565 0.128-1.056 0.385-1.472 0.26-0.421 0.619-0.747 1.076-0.98s0.98-0.349 1.569-0.349c0.605 0 1.134 0.112 1.587 0.337s0.805 0.533 1.058 0.925c0.252 0.389 0.379 0.833 0.379 1.334 0 0.336-0.064 0.667-0.192 0.992-0.128 0.321-0.355 0.679-0.679 1.076-0.32 0.393-0.771 0.867-1.352 1.424l-1.538 1.569v0.066h3.894v1.352h-6.142z"></path>
</symbol>
</defs>
</svg>
